<svg width="22" height="21" viewBox="0 0 22 21" fill="none" xmlns="http://www.w3.org/2000/svg">
<path d="M10.0723 0C11.5594 4.22169e-05 12.973 0.322515 14.2451 0.902344C14.5466 1.03977 14.6793 1.39577 14.542 1.69727C14.4046 1.99861 14.0495 2.13218 13.748 1.99512C12.629 1.48499 11.3844 1.20024 10.0723 1.2002C5.17245 1.2002 1.2002 5.17245 1.2002 10.0723C1.20035 14.9719 5.17255 18.9443 10.0723 18.9443C14.9718 18.9442 18.9442 14.9718 18.9443 10.0723C18.9443 9.67651 18.9182 9.28679 18.8682 8.90527C18.825 8.57672 19.0562 8.27459 19.3848 8.23145C19.7133 8.18837 20.0145 8.42051 20.0576 8.74902C20.1145 9.18222 20.1436 9.62411 20.1436 10.0723C20.1434 15.6346 15.6346 20.1434 10.0723 20.1436C4.50981 20.1436 0.000157713 15.6347 0 10.0723C0 4.50971 4.50971 0 10.0723 0ZM13.2969 10.6533C13.6244 10.7034 13.8499 11.0103 13.7998 11.3379C13.6423 12.3675 13.2214 13.1981 12.5293 13.7656C11.8411 14.3298 10.951 14.5791 9.95605 14.5791H9.93555L9.91504 14.5771C8.98861 14.5127 8.12299 14.2591 7.4375 13.7217C6.74099 13.1755 6.2852 12.3795 6.11426 11.3447C6.06027 11.0179 6.28168 10.7095 6.6084 10.6553C6.93534 10.6013 7.24482 10.8225 7.29883 11.1494C7.4277 11.9291 7.74859 12.4408 8.17773 12.7773C8.6139 13.1193 9.21694 13.3231 9.97754 13.3789C10.7665 13.3754 11.3545 13.1773 11.7686 12.8379C12.1825 12.4985 12.4899 11.9627 12.6133 11.1562C12.6634 10.8288 12.9694 10.6034 13.2969 10.6533ZM7.52734 6.61621C8.06683 6.61621 8.50488 7.05329 8.50488 7.59277C8.50477 8.13216 8.06676 8.56934 7.52734 8.56934C6.98806 8.56919 6.5509 8.13207 6.55078 7.59277C6.55078 7.05338 6.98798 6.61636 7.52734 6.61621ZM12.6172 6.61621C13.1567 6.61621 13.5947 7.05329 13.5947 7.59277C13.5946 8.13216 13.1566 8.56934 12.6172 8.56934C12.0779 8.56919 11.6407 8.13207 11.6406 7.59277C11.6406 7.05338 12.0778 6.61636 12.6172 6.61621ZM18.0957 0.327148C18.427 0.327148 18.6962 0.595454 18.6963 0.926758V3.12695H20.8965C21.2276 3.12716 21.4959 3.39548 21.4961 3.72656C21.4961 4.0578 21.2277 4.32694 20.8965 4.32715H18.6963V6.72656C18.6963 7.05793 18.4271 7.32715 18.0957 7.32715C17.7645 7.32694 17.4961 7.0578 17.4961 6.72656V4.32715H15.0957C14.7645 4.32694 14.4961 4.0578 14.4961 3.72656C14.4963 3.39548 14.7646 3.12716 15.0957 3.12695H17.4961V0.926758C17.4962 0.595585 17.7646 0.32736 18.0957 0.327148Z" fill="#181818"/>
</svg>
