<svg width="20" height="22" viewBox="0 0 20 22" fill="none" xmlns="http://www.w3.org/2000/svg">
<path fill-rule="evenodd" clip-rule="evenodd" d="M3.97461 8.87495C4.30585 8.87495 4.57498 9.14337 4.5752 9.47456C4.5752 9.80593 4.30598 10.0751 3.97461 10.0751H1.72461C1.43497 10.0754 1.20041 10.3099 1.2002 10.5996V19.7246C1.2002 20.0144 1.43484 20.2497 1.72461 20.25H17.4746C17.7646 20.25 18 20.0145 18 19.7246V10.5996C17.9998 10.3098 17.7644 10.0751 17.4746 10.0751H15.2246C14.8934 10.0749 14.625 9.8058 14.625 9.47456C14.6252 9.1435 14.8935 8.87516 15.2246 8.87495H17.4746C18.4272 8.87495 19.2 9.64705 19.2002 10.5996V19.7246C19.2002 20.6773 18.4273 21.4501 17.4746 21.4501H1.72461C0.772098 21.4499 0 20.6771 0 19.7246V10.5996C0.000210995 9.64718 0.772228 8.87516 1.72461 8.87495H3.97461ZM9.17578 0.175736C9.4101 -0.0585788 9.7901 -0.0585783 10.0244 0.175736L14.5244 4.67574C14.7587 4.91005 14.7587 5.29005 14.5244 5.52437C14.2901 5.75858 13.9101 5.75865 13.6758 5.52437L10.2002 2.04781V11.8496C10.2002 12.1809 9.93098 12.4501 9.59961 12.4501C9.26842 12.4499 9 12.1808 9 11.8496V2.04878L5.52441 5.52437C5.29009 5.75859 4.91006 5.75865 4.67578 5.52437C4.4415 5.29009 4.44156 4.91006 4.67578 4.67574L9.17578 0.175736Z" fill="#101010"/>
</svg>
