<svg width="20" height="20" viewBox="0 0 20 20" fill="none" xmlns="http://www.w3.org/2000/svg">
<path d="M9.31055 1.81104C10.5499 1.81107 11.728 2.07976 12.7881 2.56299C13.0394 2.67753 13.1507 2.97481 13.0361 3.22607C12.9216 3.47725 12.6243 3.58766 12.373 3.47314C11.4406 3.04812 10.4039 2.81107 9.31055 2.81104C5.22737 2.81104 1.91699 6.12141 1.91699 10.2046C1.91712 14.2877 5.22745 17.5981 9.31055 17.5981C13.3935 17.598 16.704 14.2876 16.7041 10.2046C16.7041 9.87475 16.6824 9.54991 16.6406 9.23193C16.6047 8.95814 16.7975 8.70734 17.0713 8.67139C17.345 8.63562 17.5959 8.82836 17.6318 9.10205C17.6792 9.46299 17.7041 9.83119 17.7041 10.2046C17.704 14.8399 13.9458 18.598 9.31055 18.5981C4.67517 18.5981 0.917124 14.8399 0.916992 10.2046C0.916992 5.56913 4.67509 1.81104 9.31055 1.81104ZM11.998 10.689C12.2709 10.7308 12.4587 10.9864 12.417 11.2593C12.2858 12.1172 11.935 12.8088 11.3584 13.2817C10.7849 13.752 10.0431 13.9604 9.21387 13.9604H9.19629L9.17969 13.9585C8.40751 13.9048 7.68556 13.6936 7.11426 13.2456C6.53397 12.7905 6.15516 12.1273 6.0127 11.2651C5.96771 10.9928 6.1516 10.7351 6.42383 10.6899C6.69628 10.6449 6.95402 10.8296 6.99902 11.1021C7.10637 11.7518 7.37389 12.178 7.73145 12.4585C8.09493 12.7436 8.59752 12.9139 9.23145 12.9604C9.88914 12.9576 10.3795 12.7923 10.7246 12.5093C11.0695 12.2265 11.3249 11.7799 11.4277 11.1079C11.4695 10.8349 11.7251 10.6472 11.998 10.689ZM7.19043 7.32373C7.6398 7.32396 8.00391 7.68875 8.00391 8.13818C8.0039 8.5876 7.6398 8.95241 7.19043 8.95264C6.74086 8.95264 6.37599 8.58775 6.37598 8.13818C6.37598 7.68861 6.74086 7.32373 7.19043 7.32373ZM11.4316 7.32373C11.881 7.32396 12.2451 7.68875 12.2451 8.13818C12.2451 8.58759 11.881 8.95241 11.4316 8.95264C10.9821 8.95264 10.6172 8.58773 10.6172 8.13818C10.6172 7.68861 10.9821 7.32373 11.4316 7.32373ZM15.9971 2.0835C16.2732 2.0835 16.4971 2.30735 16.4971 2.5835V4.4165H18.3301C18.6061 4.4165 18.8299 4.64049 18.8301 4.9165C18.8301 5.19265 18.6062 5.4165 18.3301 5.4165H16.4971V7.4165C16.4971 7.69265 16.2732 7.9165 15.9971 7.9165C15.7209 7.9165 15.4971 7.69265 15.4971 7.4165V5.4165H13.4971C13.2209 5.4165 12.9971 5.19265 12.9971 4.9165C12.9972 4.64049 13.221 4.4165 13.4971 4.4165H15.4971V2.5835C15.4971 2.30735 15.7209 2.0835 15.9971 2.0835Z" fill="#181818"/>
</svg>
