<svg width="24" height="24" viewBox="0 0 24 24" fill="none" xmlns="http://www.w3.org/2000/svg">
<path d="M6.375 10.1501C6.70624 10.1501 6.97538 10.4186 6.97559 10.7498C6.97559 11.0811 6.70637 11.3503 6.375 11.3503H4.125C3.83536 11.3506 3.6008 11.5851 3.60059 11.8748V20.9998C3.60059 21.2896 3.83523 21.5249 4.125 21.5251H19.875C20.1649 21.5251 20.4004 21.2897 20.4004 20.9998V11.8748C20.4002 11.585 20.1648 11.3503 19.875 11.3503H17.625C17.2938 11.3501 17.0254 11.081 17.0254 10.7498C17.0256 10.4187 17.2939 10.1504 17.625 10.1501H19.875C20.8276 10.1501 21.6004 10.9222 21.6006 11.8748V20.9998C21.6006 21.9524 20.8277 22.7253 19.875 22.7253H4.125C3.17249 22.7251 2.40039 21.9523 2.40039 20.9998V11.8748C2.4006 10.9224 3.17262 10.1504 4.125 10.1501H6.375ZM11.5762 1.45093C11.8105 1.21661 12.1905 1.21661 12.4248 1.45093L16.9248 5.95093C17.1591 6.18524 17.1591 6.56525 16.9248 6.79956C16.6905 7.03378 16.3105 7.03384 16.0762 6.79956L12.6006 3.323V13.1248C12.6006 13.4561 12.3314 13.7253 12 13.7253C11.6688 13.7251 11.4004 13.456 11.4004 13.1248V3.32397L7.9248 6.79956C7.69048 7.03378 7.31045 7.03384 7.07617 6.79956C6.84189 6.56528 6.84196 6.18525 7.07617 5.95093L11.5762 1.45093Z" fill="#101010"/>
</svg>
